<svg width="80" height="80" viewBox="0 0 80 80" fill="none" xmlns="http://www.w3.org/2000/svg">
<path d="M36.6531 65.5519L15.4049 42.2604C15.1254 41.954 14.9743 41.5446 14.9849 41.1224C14.9955 40.7002 15.167 40.2997 15.4616 40.0089L50.2238 5.69041C50.2638 5.65093 50.3038 5.61145 50.3437 5.57197C57.2659 0.0840828 66.3458 -1.33156 78.0995 1.24341C78.4031 1.31015 78.68 1.4713 78.8936 1.70538C79.1073 1.9396 79.2473 2.23569 79.2955 2.55462C81.1635 14.9089 79.3235 24.2627 73.6847 31.1644C73.6499 31.2076 73.6128 31.2487 73.5734 31.2874L38.8122 65.6049C38.5186 65.8947 38.1267 66.0518 37.7221 66.0418C37.3175 66.032 36.9332 65.8558 36.6531 65.5519ZM18.6796 41.223L37.8202 62.2041L71.4122 29.0411C76.3088 23.0146 77.9139 15.0807 76.4377 4.15072C66.0235 2.05156 58.3231 3.30413 52.2747 8.06563L18.6796 41.223Z" fill="white"/>
<path d="M7.68313 38.5749C7.53756 38.4155 7.42526 38.2265 7.35318 38.0198C7.28125 37.8132 7.25122 37.5932 7.26496 37.3739L7.47029 34.2027C7.65806 30.9722 8.73711 27.8663 10.578 25.2573C12.4189 22.6482 14.9439 20.6465 17.8504 19.4918L18.0373 19.4192C24.262 17.0313 31.132 17.2331 37.217 19.9828C37.437 20.0974 37.627 20.2654 37.7712 20.4727C37.9153 20.6798 38.0095 20.9201 38.0455 21.1732C38.0816 21.4262 38.0583 21.6846 37.9782 21.9264C37.8979 22.1681 37.7628 22.3863 37.5842 22.5623L21.9615 37.9857C21.7729 38.1716 21.5421 38.3044 21.2905 38.3719C21.0388 38.4394 20.775 38.4391 20.5235 38.3712C16.8165 37.4854 12.9457 37.6918 9.34517 38.967C9.10501 39.0622 8.84573 39.093 8.59126 39.0566C8.33665 39.0201 8.09507 38.9175 7.8886 38.7584C7.81511 38.7034 7.74643 38.6421 7.68313 38.5749ZM18.3834 20.9853L18.9166 22.4767C16.5625 23.417 14.5189 25.0434 13.0306 27.161C11.5424 29.2788 10.6725 31.7979 10.5252 34.4166L10.467 35.3083C13.7408 34.4813 17.1483 34.4046 20.4536 35.0834L33.6988 22.0071C28.9102 20.5153 23.7884 20.6568 19.0828 22.4115L18.3834 20.9853Z" fill="white"/>
<path d="M39.7948 73.7789C39.7327 73.7107 39.6762 73.6372 39.6261 73.5591C39.4842 73.3364 39.3983 73.0799 39.3765 72.8135C39.3549 72.5472 39.3981 72.2794 39.502 72.035C40.9144 68.3613 41.3149 64.3507 40.6584 60.4535C40.6064 60.1888 40.6199 59.9147 40.6977 59.6567C40.7756 59.3989 40.9154 59.166 41.1037 58.9798L56.7298 43.5532C56.9081 43.377 57.1245 43.2481 57.3608 43.1773C57.5972 43.1066 57.8464 43.0961 58.0874 43.1468C58.3284 43.1973 58.5541 43.3077 58.7456 43.4684C58.9369 43.6289 59.0883 43.8352 59.1868 44.0696C61.5084 50.5347 61.343 57.6823 58.7252 64.0239L58.6456 64.2143C57.3853 67.1734 55.3316 69.6916 52.7307 71.4677C50.1298 73.2438 47.0919 74.2022 43.9808 74.2285L40.9259 74.276C40.7146 74.2788 40.505 74.2361 40.3104 74.1505C40.1157 74.0649 39.9403 73.9384 39.7948 73.7789ZM43.8144 60.6949C44.2931 64.1639 44.0412 67.6998 43.0762 71.0576L43.9353 71.0438C46.4561 71.0273 48.9188 70.2555 51.0288 68.8207C53.1388 67.3861 54.8067 65.3491 55.8326 62.9538L57.3057 63.4118L55.8963 62.7922C57.8266 57.9956 58.2303 52.6822 57.0486 47.6296L43.8144 60.6949Z" fill="white"/>
<path d="M56.5319 23.7978C55.4339 22.5946 54.7035 21.0798 54.4332 19.4446C54.1627 17.8096 54.3645 16.128 55.0129 14.6123C55.6613 13.0965 56.7272 11.8149 58.0759 10.9294C59.4246 10.0439 60.9954 9.59432 62.5896 9.63762C64.184 9.68079 65.7301 10.2148 67.0326 11.1722C68.3351 12.1297 69.3354 13.4672 69.9071 15.0161C70.4787 16.5649 70.596 18.2553 70.2441 19.8735C69.8922 21.4915 69.0869 22.9648 67.9301 24.1068C66.3779 25.6356 64.3063 26.4616 62.1696 26.4037C60.0329 26.3458 58.0054 25.4086 56.5319 23.7978ZM66.0073 14.4433C65.3265 13.6966 64.4481 13.1767 63.4833 12.9494C62.5184 12.722 61.5103 12.7976 60.5867 13.1663C59.663 13.5349 58.8652 14.1802 58.2942 15.0208C57.7233 15.8612 57.4047 16.8589 57.3788 17.8877C57.3528 18.9165 57.6209 19.9302 58.149 20.8005C58.6769 21.6708 59.4411 22.3587 60.345 22.7771C61.2489 23.1956 62.2518 23.3257 63.2267 23.1511C64.2017 22.9765 65.105 22.5052 65.8224 21.7964C66.7828 20.846 67.3417 19.5382 67.3762 18.1597C67.4109 16.7813 66.9187 15.4447 66.0073 14.4433Z" fill="white"/>
<path d="M30.9677 68.8886L11.9009 47.9882C11.6213 47.682 11.4704 47.2726 11.481 46.8504C11.4916 46.4282 11.663 46.0277 11.9575 45.7369L16.548 41.2049C16.8425 40.9141 17.2361 40.7571 17.6419 40.7681C18.0478 40.7792 18.4328 40.9574 18.7123 41.2638L37.7792 62.1642C38.0587 62.4704 38.2098 62.8798 38.1992 63.302C38.1886 63.7242 38.0171 64.1247 37.7225 64.4155L33.1321 68.9475C32.8375 69.2383 32.444 69.3953 32.0381 69.3843C31.6323 69.3732 31.2473 69.195 30.9677 68.8886ZM15.1755 46.9509L32.1349 65.5409L34.5045 63.2015L17.5453 44.6114L15.1755 46.9509Z" fill="white"/>
<path d="M1.24196 78.5321C0.577965 77.7331 0.15824 76.7459 0.0367406 75.6974C-0.0849002 74.6487 0.0970661 73.5861 0.559414 72.6457C1.81321 69.4678 2.6637 66.1336 3.08937 62.7272C3.99254 56.9109 4.70582 52.3164 14.5278 47.7791C14.8169 47.6455 15.1385 47.608 15.4487 47.6721C15.7588 47.7362 16.0423 47.8987 16.2601 48.1372L31.039 64.3371C31.2569 64.5758 31.3985 64.8789 31.444 65.2048C31.4896 65.5306 31.4369 65.8631 31.2932 66.1566C30.0834 68.8436 28.4484 71.3002 26.4563 73.4237C23.3227 76.5173 20.114 76.9099 16.399 77.3652C13.1367 77.6609 9.92405 78.3887 6.83913 79.5316C5.91826 79.9645 4.89402 80.1014 3.89781 79.9246C2.9016 79.7477 1.97903 79.2652 1.24833 78.539L1.24196 78.5321ZM14.7928 51.1557C7.42468 54.7829 6.94803 57.8486 6.11297 63.2375C5.64737 66.8967 4.7289 70.4778 3.38037 73.8918C2.96391 74.9112 2.99605 75.8279 3.46491 76.3419C3.92868 76.8502 4.7963 76.9245 5.78373 76.5469C9.09508 75.3187 12.5428 74.5317 16.0443 74.2048C19.6018 73.7666 21.9566 73.4814 24.3519 71.1168C25.8525 69.5242 27.1064 67.6989 28.0689 65.7061L14.7928 51.1557Z" fill="white"/>
<path d="M11.7024 68.1221C11.2648 67.6028 10.9846 66.9606 10.8968 66.2762C10.809 65.5918 10.9176 64.8957 11.2089 64.2752C11.8253 62.7111 12.244 61.0705 12.4546 59.3943C12.9148 56.4632 13.3142 53.9351 17.9107 51.5728C18.2037 51.4239 18.5347 51.3762 18.8555 51.4366C19.1764 51.497 19.4703 51.6624 19.6944 51.9087L27.5982 60.5723C27.8224 60.8182 27.9654 61.1319 28.0065 61.4682C28.0476 61.8044 27.9844 62.1454 27.8262 62.4418C27.2487 63.5817 26.51 64.6248 25.6346 65.5362C24.0946 66.9474 22.119 67.737 20.0668 67.7616C18.4623 67.9086 16.8821 68.2668 15.3642 68.8277C14.756 69.0991 14.0842 69.1773 13.4334 69.0525C12.7827 68.9279 12.1819 68.6057 11.7065 68.1267L11.7024 68.1221ZM18.2734 54.9779C16.0254 56.3587 15.8358 57.569 15.4694 59.9044C15.2213 61.8312 14.7353 63.7168 14.0235 65.5143C13.9576 65.6482 13.928 65.798 13.9379 65.9479C13.9399 65.913 14.0783 65.9213 14.3013 65.8351C16.0475 65.1846 17.866 64.7681 19.7133 64.5956C21.1021 64.6316 22.4568 64.1449 23.528 63.2249C23.9255 62.8188 24.2777 62.3674 24.5776 61.8791L18.2734 54.9779Z" fill="white"/>
<path d="M32.2135 47.8105C31.934 47.5041 31.7829 47.0947 31.7935 46.6725C31.8041 46.2504 31.9756 45.8498 32.2701 45.559L38.7796 39.1328C39.074 38.842 39.4675 38.6848 39.8733 38.6959C40.2792 38.7069 40.6642 38.8853 40.9437 39.1917C41.2233 39.498 41.3744 39.9073 41.3637 40.3295C41.3531 40.7517 41.1816 41.1522 40.8871 41.443L34.3777 47.8693C34.0833 48.1601 33.6898 48.3173 33.2839 48.3062C32.8781 48.2952 32.4929 48.1168 32.2135 47.8105Z" fill="white"/>
<path d="M27.2798 42.3538C27.0004 42.0474 26.8493 41.638 26.8599 41.2158C26.8705 40.7937 27.0419 40.3931 27.3364 40.1023L30.1991 37.2762C30.4937 36.9854 30.8871 36.8284 31.2931 36.8394C31.6989 36.8505 32.0839 37.0287 32.3635 37.3351C32.6429 37.6415 32.794 38.0507 32.7833 38.4729C32.7727 38.8953 32.6014 39.2958 32.3068 39.5864L29.4441 42.4127C29.1495 42.7034 28.7562 42.8606 28.3502 42.8495C27.9443 42.8385 27.5593 42.6602 27.2798 42.3538Z" fill="white"/>
<path d="M37.1823 53.1976C36.9027 52.8913 36.7516 52.4819 36.7622 52.0597C36.7729 51.6376 36.9443 51.237 37.2387 50.9462L40.1015 48.1201C40.396 47.8293 40.7894 47.6721 41.1954 47.6832C41.6013 47.6942 41.9863 47.8726 42.2658 48.1789C42.5452 48.4853 42.6963 48.8946 42.6857 49.3168C42.6751 49.739 42.5037 50.1396 42.2092 50.4303L39.3464 53.2565C39.0519 53.5473 38.6585 53.7045 38.2527 53.6934C37.8467 53.6824 37.4616 53.504 37.1823 53.1976Z" fill="white"/>
</svg>
